<?xml version="1.0" encoding="UTF-8" standalone="no"?><svg xmlns="http://www.w3.org/2000/svg" xmlns:xlink="http://www.w3.org/1999/xlink" contentScriptType="application/ecmascript" contentStyleType="text/css" height="1442px" preserveAspectRatio="none" style="width:709px;height:1442px;" version="1.1" viewBox="0 0 709 1442" width="709px" zoomAndPan="magnify"><defs><filter height="300%" id="f12hq0wsxsxurq" width="300%" x="-1" y="-1"><feGaussianBlur result="blurOut" stdDeviation="2.0"/><feColorMatrix in="blurOut" result="blurOut2" type="matrix" values="0 0 0 0 0 0 0 0 0 0 0 0 0 0 0 0 0 0 .4 0"/><feOffset dx="4.0" dy="4.0" in="blurOut2" result="blurOut3"/><feBlend in="SourceGraphic" in2="blurOut3" mode="normal"/></filter></defs><g><!--cluster Presentation--><polygon fill="#FFFFFF" filter="url(#f12hq0wsxsxurq)" points="41.8527,617,145.8527,617,152.8527,640.0146,539.3527,640.0146,539.3527,1313,41.8527,1313,41.8527,617" style="stroke: #000000; stroke-width: 1.5;"/><line style="stroke: #000000; stroke-width: 1.5;" x1="41.8527" x2="152.8527" y1="640.0146" y2="640.0146"/><text fill="#000000" font-family="sans-serif" font-size="14" font-weight="bold" lengthAdjust="spacingAndGlyphs" textLength="98" x="45.8527" y="633.0752">Presentation</text><!--cluster Pages--><polygon fill="#FFFFFF" filter="url(#f12hq0wsxsxurq)" points="53.3527,871,105.3527,871,112.3527,894.0146,531.3527,894.0146,531.3527,1305,53.3527,1305,53.3527,871" style="stroke: #000000; stroke-width: 1.5;"/><line style="stroke: #000000; stroke-width: 1.5;" x1="53.3527" x2="112.3527" y1="894.0146" y2="894.0146"/><text fill="#000000" font-family="sans-serif" font-size="14" font-weight="bold" lengthAdjust="spacingAndGlyphs" textLength="46" x="57.3527" y="887.0752">Pages</text><!--cluster Components--><polygon fill="#FFFFFF" filter="url(#f12hq0wsxsxurq)" points="49.8527,645,153.8527,645,160.8527,668.0146,163.8527,668.0146,163.8527,863,49.8527,863,49.8527,645" style="stroke: #000000; stroke-width: 1.5;"/><line style="stroke: #000000; stroke-width: 1.5;" x1="49.8527" x2="160.8527" y1="668.0146" y2="668.0146"/><text fill="#000000" font-family="sans-serif" font-size="14" font-weight="bold" lengthAdjust="spacingAndGlyphs" textLength="98" x="53.8527" y="661.0752">Components</text><!--cluster Business--><polygon fill="#FFFFFF" filter="url(#f12hq0wsxsxurq)" points="414.3527,21,488.3527,21,495.3527,44.0146,687.3527,44.0146,687.3527,239,414.3527,239,414.3527,21" style="stroke: #000000; stroke-width: 1.5;"/><line style="stroke: #000000; stroke-width: 1.5;" x1="414.3527" x2="495.3527" y1="44.0146" y2="44.0146"/><text fill="#000000" font-family="sans-serif" font-size="14" font-weight="bold" lengthAdjust="spacingAndGlyphs" textLength="68" x="418.3527" y="37.0752">Business</text><!--cluster Utils--><polygon fill="#FFFFFF" filter="url(#f12hq0wsxsxurq)" points="73.3527,1321,112.3527,1321,119.3527,1344.0146,139.3527,1344.0146,139.3527,1430,73.3527,1430,73.3527,1321" style="stroke: #000000; stroke-width: 1.5;"/><line style="stroke: #000000; stroke-width: 1.5;" x1="73.3527" x2="119.3527" y1="1344.0146" y2="1344.0146"/><text fill="#000000" font-family="sans-serif" font-size="14" font-weight="bold" lengthAdjust="spacingAndGlyphs" textLength="33" x="77.3527" y="1337.0752">Utils</text><!--cluster Data--><polygon fill="#FFFFFF" filter="url(#f12hq0wsxsxurq)" points="400.3527,247,441.3527,247,448.3527,270.0146,533.3527,270.0146,533.3527,609,400.3527,609,400.3527,247" style="stroke: #000000; stroke-width: 1.5;"/><line style="stroke: #000000; stroke-width: 1.5;" x1="400.3527" x2="448.3527" y1="270.0146" y2="270.0146"/><text fill="#000000" font-family="sans-serif" font-size="14" font-weight="bold" lengthAdjust="spacingAndGlyphs" textLength="35" x="404.3527" y="263.0752">Data</text><!--entity Main--><rect fill="#FEFECE" filter="url(#f12hq0wsxsxurq)" height="37.0146" style="stroke: #A80036; stroke-width: 1.5;" width="51" x="264.3527" y="899.5"/><rect fill="#FEFECE" height="5" style="stroke: #A80036; stroke-width: 1.5;" width="10" x="259.3527" y="904.5"/><rect fill="#FEFECE" height="5" style="stroke: #A80036; stroke-width: 1.5;" width="10" x="259.3527" y="926.5146"/><text fill="#000000" font-family="sans-serif" font-size="14" lengthAdjust="spacingAndGlyphs" textLength="31" x="274.3527" y="923.5752">Main</text><!--entity Tab--><rect fill="#FEFECE" filter="url(#f12hq0wsxsxurq)" height="37.0146" style="stroke: #A80036; stroke-width: 1.5;" width="46" x="83.3527" y="1079.5"/><rect fill="#FEFECE" height="5" style="stroke: #A80036; stroke-width: 1.5;" width="10" x="78.3527" y="1084.5"/><rect fill="#FEFECE" height="5" style="stroke: #A80036; stroke-width: 1.5;" width="10" x="78.3527" y="1106.5146"/><text fill="#000000" font-family="sans-serif" font-size="14" lengthAdjust="spacingAndGlyphs" textLength="26" x="93.3527" y="1103.5752">Tab</text><!--entity About--><rect fill="#FEFECE" filter="url(#f12hq0wsxsxurq)" height="37.0146" style="stroke: #A80036; stroke-width: 1.5;" width="63" x="258.3527" y="1043.5"/><rect fill="#FEFECE" height="5" style="stroke: #A80036; stroke-width: 1.5;" width="10" x="253.3527" y="1048.5"/><rect fill="#FEFECE" height="5" style="stroke: #A80036; stroke-width: 1.5;" width="10" x="253.3527" y="1070.5146"/><text fill="#000000" font-family="sans-serif" font-size="14" lengthAdjust="spacingAndGlyphs" textLength="43" x="268.3527" y="1067.5752">About</text><!--entity FileUpload--><rect fill="#FEFECE" filter="url(#f12hq0wsxsxurq)" height="37.0146" style="stroke: #A80036; stroke-width: 1.5;" width="90" x="61.3527" y="899.5"/><rect fill="#FEFECE" height="5" style="stroke: #A80036; stroke-width: 1.5;" width="10" x="56.3527" y="904.5"/><rect fill="#FEFECE" height="5" style="stroke: #A80036; stroke-width: 1.5;" width="10" x="56.3527" y="926.5146"/><text fill="#000000" font-family="sans-serif" font-size="14" lengthAdjust="spacingAndGlyphs" textLength="70" x="71.3527" y="923.5752">FileUpload</text><!--entity Keyboard--><rect fill="#FEFECE" filter="url(#f12hq0wsxsxurq)" height="37.0146" style="stroke: #A80036; stroke-width: 1.5;" width="87" x="246.3527" y="1115.5"/><rect fill="#FEFECE" height="5" style="stroke: #A80036; stroke-width: 1.5;" width="10" x="241.3527" y="1120.5"/><rect fill="#FEFECE" height="5" style="stroke: #A80036; stroke-width: 1.5;" width="10" x="241.3527" y="1142.5146"/><text fill="#000000" font-family="sans-serif" font-size="14" lengthAdjust="spacingAndGlyphs" textLength="67" x="256.3527" y="1139.5752">Keyboard</text><!--entity MotorStatus--><rect fill="#FEFECE" filter="url(#f12hq0wsxsxurq)" height="37.0146" style="stroke: #A80036; stroke-width: 1.5;" width="108" x="235.8527" y="1187.5"/><rect fill="#FEFECE" height="5" style="stroke: #A80036; stroke-width: 1.5;" width="10" x="230.8527" y="1192.5"/><rect fill="#FEFECE" height="5" style="stroke: #A80036; stroke-width: 1.5;" width="10" x="230.8527" y="1214.5146"/><text fill="#000000" font-family="sans-serif" font-size="14" lengthAdjust="spacingAndGlyphs" textLength="88" x="245.8527" y="1211.5752">MotorStatus</text><!--entity SensorStatus--><rect fill="#FEFECE" filter="url(#f12hq0wsxsxurq)" height="37.0146" style="stroke: #A80036; stroke-width: 1.5;" width="117" x="231.3527" y="1259.5"/><rect fill="#FEFECE" height="5" style="stroke: #A80036; stroke-width: 1.5;" width="10" x="226.3527" y="1264.5"/><rect fill="#FEFECE" height="5" style="stroke: #A80036; stroke-width: 1.5;" width="10" x="226.3527" y="1286.5146"/><text fill="#000000" font-family="sans-serif" font-size="14" lengthAdjust="spacingAndGlyphs" textLength="97" x="241.3527" y="1283.5752">SensorStatus</text><!--entity MotorGraph--><rect fill="#FEFECE" filter="url(#f12hq0wsxsxurq)" height="37.0146" style="stroke: #A80036; stroke-width: 1.5;" width="104" x="414.8527" y="899.5"/><rect fill="#FEFECE" height="5" style="stroke: #A80036; stroke-width: 1.5;" width="10" x="409.8527" y="904.5"/><rect fill="#FEFECE" height="5" style="stroke: #A80036; stroke-width: 1.5;" width="10" x="409.8527" y="926.5146"/><text fill="#000000" font-family="sans-serif" font-size="14" lengthAdjust="spacingAndGlyphs" textLength="84" x="424.8527" y="923.5752">MotorGraph</text><!--entity SensorGraph--><rect fill="#FEFECE" filter="url(#f12hq0wsxsxurq)" height="37.0146" style="stroke: #A80036; stroke-width: 1.5;" width="113" x="410.3527" y="971.5"/><rect fill="#FEFECE" height="5" style="stroke: #A80036; stroke-width: 1.5;" width="10" x="405.3527" y="976.5"/><rect fill="#FEFECE" height="5" style="stroke: #A80036; stroke-width: 1.5;" width="10" x="405.3527" y="998.5146"/><text fill="#000000" font-family="sans-serif" font-size="14" lengthAdjust="spacingAndGlyphs" textLength="93" x="420.3527" y="995.5752">SensorGraph</text><!--entity Settings--><rect fill="#FEFECE" filter="url(#f12hq0wsxsxurq)" height="37.0146" style="stroke: #A80036; stroke-width: 1.5;" width="79" x="250.3527" y="971.5"/><rect fill="#FEFECE" height="5" style="stroke: #A80036; stroke-width: 1.5;" width="10" x="245.3527" y="976.5"/><rect fill="#FEFECE" height="5" style="stroke: #A80036; stroke-width: 1.5;" width="10" x="245.3527" y="998.5146"/><text fill="#000000" font-family="sans-serif" font-size="14" lengthAdjust="spacingAndGlyphs" textLength="59" x="260.3527" y="995.5752">Settings</text><!--entity Status--><rect fill="#FEFECE" filter="url(#f12hq0wsxsxurq)" height="37.0146" style="stroke: #A80036; stroke-width: 1.5;" width="67" x="72.8527" y="745.5"/><rect fill="#FEFECE" height="5" style="stroke: #A80036; stroke-width: 1.5;" width="10" x="67.8527" y="750.5"/><rect fill="#FEFECE" height="5" style="stroke: #A80036; stroke-width: 1.5;" width="10" x="67.8527" y="772.5146"/><text fill="#000000" font-family="sans-serif" font-size="14" lengthAdjust="spacingAndGlyphs" textLength="47" x="82.8527" y="769.5752">Status</text><!--entity Chart--><rect fill="#FEFECE" filter="url(#f12hq0wsxsxurq)" height="37.0146" style="stroke: #A80036; stroke-width: 1.5;" width="59" x="76.8527" y="817.5"/><rect fill="#FEFECE" height="5" style="stroke: #A80036; stroke-width: 1.5;" width="10" x="71.8527" y="822.5"/><rect fill="#FEFECE" height="5" style="stroke: #A80036; stroke-width: 1.5;" width="10" x="71.8527" y="844.5146"/><text fill="#000000" font-family="sans-serif" font-size="14" lengthAdjust="spacingAndGlyphs" textLength="39" x="86.8527" y="841.5752">Chart</text><!--entity Joystick--><rect fill="#FEFECE" filter="url(#f12hq0wsxsxurq)" height="37.0146" style="stroke: #A80036; stroke-width: 1.5;" width="75" x="68.8527" y="673.5"/><rect fill="#FEFECE" height="5" style="stroke: #A80036; stroke-width: 1.5;" width="10" x="63.8527" y="678.5"/><rect fill="#FEFECE" height="5" style="stroke: #A80036; stroke-width: 1.5;" width="10" x="63.8527" y="700.5146"/><text fill="#000000" font-family="sans-serif" font-size="14" lengthAdjust="spacingAndGlyphs" textLength="55" x="78.8527" y="697.5752">Joystick</text><!--entity Bluetooth--><rect fill="#FEFECE" filter="url(#f12hq0wsxsxurq)" height="37.0146" style="stroke: #A80036; stroke-width: 1.5;" width="89" x="422.3527" y="49.5"/><rect fill="#FEFECE" height="5" style="stroke: #A80036; stroke-width: 1.5;" width="10" x="417.3527" y="54.5"/><rect fill="#FEFECE" height="5" style="stroke: #A80036; stroke-width: 1.5;" width="10" x="417.3527" y="76.5146"/><text fill="#000000" font-family="sans-serif" font-size="14" lengthAdjust="spacingAndGlyphs" textLength="69" x="432.3527" y="73.5752">Bluetooth</text><!--entity NXTPacket--><rect fill="#FEFECE" filter="url(#f12hq0wsxsxurq)" height="37.0146" style="stroke: #A80036; stroke-width: 1.5;" width="94" x="585.3527" y="193.5"/><rect fill="#FEFECE" height="5" style="stroke: #A80036; stroke-width: 1.5;" width="10" x="580.3527" y="198.5"/><rect fill="#FEFECE" height="5" style="stroke: #A80036; stroke-width: 1.5;" width="10" x="580.3527" y="220.5146"/><text fill="#000000" font-family="sans-serif" font-size="14" lengthAdjust="spacingAndGlyphs" textLength="74" x="595.3527" y="217.5752">NXTPacket</text><!--entity Motor--><rect fill="#FEFECE" filter="url(#f12hq0wsxsxurq)" height="37.0146" style="stroke: #A80036; stroke-width: 1.5;" width="61" x="436.3527" y="121.5"/><rect fill="#FEFECE" height="5" style="stroke: #A80036; stroke-width: 1.5;" width="10" x="431.3527" y="126.5"/><rect fill="#FEFECE" height="5" style="stroke: #A80036; stroke-width: 1.5;" width="10" x="431.3527" y="148.5146"/><text fill="#000000" font-family="sans-serif" font-size="14" lengthAdjust="spacingAndGlyphs" textLength="41" x="446.3527" y="145.5752">Motor</text><!--entity Sensor--><rect fill="#FEFECE" filter="url(#f12hq0wsxsxurq)" height="37.0146" style="stroke: #A80036; stroke-width: 1.5;" width="70" x="431.8527" y="193.5"/><rect fill="#FEFECE" height="5" style="stroke: #A80036; stroke-width: 1.5;" width="10" x="426.8527" y="198.5"/><rect fill="#FEFECE" height="5" style="stroke: #A80036; stroke-width: 1.5;" width="10" x="426.8527" y="220.5146"/><text fill="#000000" font-family="sans-serif" font-size="14" lengthAdjust="spacingAndGlyphs" textLength="50" x="441.8527" y="217.5752">Sensor</text><!--entity util--><rect fill="#FEFECE" filter="url(#f12hq0wsxsxurq)" height="37.0146" style="stroke: #A80036; stroke-width: 1.5;" width="50" x="81.3527" y="1384.5"/><rect fill="#FEFECE" height="5" style="stroke: #A80036; stroke-width: 1.5;" width="10" x="76.3527" y="1389.5"/><rect fill="#FEFECE" height="5" style="stroke: #A80036; stroke-width: 1.5;" width="10" x="76.3527" y="1411.5146"/><text fill="#000000" font-family="sans-serif" font-size="14" lengthAdjust="spacingAndGlyphs" textLength="30" x="91.3527" y="1408.5752">Utils</text><!--entity I2CRegister--><rect fill="#FEFECE" filter="url(#f12hq0wsxsxurq)" height="37.0146" style="stroke: #A80036; stroke-width: 1.5;" width="102" x="415.8527" y="347.5"/><rect fill="#FEFECE" height="5" style="stroke: #A80036; stroke-width: 1.5;" width="10" x="410.8527" y="352.5"/><rect fill="#FEFECE" height="5" style="stroke: #A80036; stroke-width: 1.5;" width="10" x="410.8527" y="374.5146"/><text fill="#000000" font-family="sans-serif" font-size="14" lengthAdjust="spacingAndGlyphs" textLength="82" x="425.8527" y="371.5752">I2CRegister</text><!--entity NXTFile--><rect fill="#FEFECE" filter="url(#f12hq0wsxsxurq)" height="37.0146" style="stroke: #A80036; stroke-width: 1.5;" width="71" x="431.3527" y="275.5"/><rect fill="#FEFECE" height="5" style="stroke: #A80036; stroke-width: 1.5;" width="10" x="426.3527" y="280.5"/><rect fill="#FEFECE" height="5" style="stroke: #A80036; stroke-width: 1.5;" width="10" x="426.3527" y="302.5146"/><text fill="#000000" font-family="sans-serif" font-size="14" lengthAdjust="spacingAndGlyphs" textLength="51" x="441.3527" y="299.5752">NXTFile</text><!--entity Command--><rect fill="#FEFECE" filter="url(#f12hq0wsxsxurq)" height="37.0146" style="stroke: #A80036; stroke-width: 1.5;" width="91" x="421.3527" y="491.5"/><rect fill="#FEFECE" height="5" style="stroke: #A80036; stroke-width: 1.5;" width="10" x="416.3527" y="496.5"/><rect fill="#FEFECE" height="5" style="stroke: #A80036; stroke-width: 1.5;" width="10" x="416.3527" y="518.5146"/><text fill="#000000" font-family="sans-serif" font-size="14" lengthAdjust="spacingAndGlyphs" textLength="71" x="431.3527" y="515.5752">Command</text><!--entity Packet--><rect fill="#FEFECE" filter="url(#f12hq0wsxsxurq)" height="37.0146" style="stroke: #A80036; stroke-width: 1.5;" width="65" x="434.3527" y="563.5"/><rect fill="#FEFECE" height="5" style="stroke: #A80036; stroke-width: 1.5;" width="10" x="429.3527" y="568.5"/><rect fill="#FEFECE" height="5" style="stroke: #A80036; stroke-width: 1.5;" width="10" x="429.3527" y="590.5146"/><text fill="#000000" font-family="sans-serif" font-size="14" lengthAdjust="spacingAndGlyphs" textLength="45" x="444.3527" y="587.5752">Packet</text><!--entity PacketFactory--><rect fill="#FEFECE" filter="url(#f12hq0wsxsxurq)" height="37.0146" style="stroke: #A80036; stroke-width: 1.5;" width="117" x="408.3527" y="419.5"/><rect fill="#FEFECE" height="5" style="stroke: #A80036; stroke-width: 1.5;" width="10" x="403.3527" y="424.5"/><rect fill="#FEFECE" height="5" style="stroke: #A80036; stroke-width: 1.5;" width="10" x="403.3527" y="446.5146"/><text fill="#000000" font-family="sans-serif" font-size="14" lengthAdjust="spacingAndGlyphs" textLength="97" x="418.3527" y="443.5752">PacketFactory</text><!--link Tab to Main--><path d="M119.7814,1079.1136 C141.1359,1049.9424 185.1647,993.2033 231.3527,954 C240.0254,946.6388 250.3573,939.765 259.9078,934.0375 " fill="none" id="Tab-Main" style="stroke: #A80036; stroke-width: 1.0;"/><polygon fill="#A80036" points="264.2321,931.4889,254.4475,932.6125,259.9245,934.0276,258.5095,939.5046,264.2321,931.4889" style="stroke: #A80036; stroke-width: 1.0;"/><!--link Tab to About--><path d="M129.5931,1093.4406 C160.6618,1087.3453 216.0808,1076.4729 252.9069,1069.2482 " fill="none" id="Tab-About" style="stroke: #A80036; stroke-width: 1.0;"/><polygon fill="#A80036" points="258.2002,1068.2098,248.5985,1066.0172,253.2937,1069.1724,250.1386,1073.8676,258.2002,1068.2098" style="stroke: #A80036; stroke-width: 1.0;"/><!--link Tab to Keyboard--><path d="M129.5931,1102.5594 C157.4446,1108.0235 204.8646,1117.3266 240.9164,1124.3994 " fill="none" id="Tab-Keyboard" style="stroke: #A80036; stroke-width: 1.0;"/><polygon fill="#A80036" points="246.1493,1125.4261,238.0878,1119.7681,241.2429,1124.4634,236.5475,1127.6184,246.1493,1125.4261" style="stroke: #A80036; stroke-width: 1.0;"/><!--link Tab to Settings--><path d="M129.5931,1084.3217 C160.9165,1065.8861 216.991,1032.8832 253.8086,1011.2139 " fill="none" id="Tab-Settings" style="stroke: #A80036; stroke-width: 1.0;"/><polygon fill="#A80036" points="258.2002,1008.6293,248.415,1009.7473,253.8912,1011.1655,252.4729,1016.6417,258.2002,1008.6293" style="stroke: #A80036; stroke-width: 1.0;"/><!--link Tab to SensorStatus--><path d="M119.7814,1116.8864 C141.1359,1146.0576 185.1647,1202.7967 231.3527,1242 C237.5266,1247.2403 244.5413,1252.2335 251.5164,1256.7421 " fill="none" id="Tab-SensorStatus" style="stroke: #A80036; stroke-width: 1.0;"/><polygon fill="#A80036" points="255.8463,1259.4846,250.3833,1251.2897,251.6223,1256.8092,246.1028,1258.0482,255.8463,1259.4846" style="stroke: #A80036; stroke-width: 1.0;"/><!--link Tab to MotorStatus--><path d="M129.5931,1111.6783 C160.9165,1130.1139 216.991,1163.1168 253.8086,1184.7861 " fill="none" id="Tab-MotorStatus" style="stroke: #A80036; stroke-width: 1.0;"/><polygon fill="#A80036" points="258.2002,1187.3707,252.4729,1179.3583,253.8912,1184.8345,248.415,1186.2527,258.2002,1187.3707" style="stroke: #A80036; stroke-width: 1.0;"/><!--link Status to Main--><path d="M138.4261,782.5555 C146.9154,787.8736 155.9195,793.8937 163.8527,800 C203.0779,830.1924 244.1362,870.5434 268.3349,895.3774 " fill="none" id="Status-Main" style="stroke: #A80036; stroke-width: 1.0;"/><polygon fill="#A80036" points="272.071,899.2259,268.6722,889.9821,268.5883,895.6383,262.9321,895.5544,272.071,899.2259" style="stroke: #A80036; stroke-width: 1.0;"/><!--link Status to About--><path d="M140.0278,779.5094 C148.8167,784.9235 157.5734,791.7542 163.8527,800 C227.3627,883.4 167.521,942.8459 231.3527,1026 C237.2957,1033.7421 245.418,1040.2133 253.7187,1045.4351 " fill="none" id="Status-About" style="stroke: #A80036; stroke-width: 1.0;"/><polygon fill="#A80036" points="258.3358,1048.2077,252.6794,1040.1451,254.0493,1045.6336,248.5608,1047.0035,258.3358,1048.2077" style="stroke: #A80036; stroke-width: 1.0;"/><!--link Status to Keyboard--><path d="M140.092,779.0579 C148.9892,784.4951 157.787,791.451 163.8527,800 C242.4343,910.754 152.3438,987.5504 231.3527,1098 C235.2229,1103.4103 240.1839,1108.1721 245.5768,1112.3111 " fill="none" id="Status-Keyboard" style="stroke: #A80036; stroke-width: 1.0;"/><polygon fill="#A80036" points="249.774,1115.3552,244.8369,1106.8332,245.7265,1112.4197,240.14,1113.3092,249.774,1115.3552" style="stroke: #A80036; stroke-width: 1.0;"/><!--link Status to Settings--><path d="M139.9878,780.3992 C148.5718,785.7553 157.233,792.3335 163.8527,800 C212.6921,856.5628 182.2951,897.6263 231.3527,954 C236.0595,959.4088 241.7823,964.2628 247.7843,968.5241 " fill="none" id="Status-Settings" style="stroke: #A80036; stroke-width: 1.0;"/><polygon fill="#A80036" points="251.975,971.3791,246.7892,963.0061,247.8428,968.5639,242.285,969.6175,251.975,971.3791" style="stroke: #A80036; stroke-width: 1.0;"/><!--link Status to SensorStatus--><path d="M139.8847,778.4254 C148.9985,783.9059 157.9658,791.0437 163.8527,800 C273.0029,966.0622 121.5617,1076.3607 231.3527,1242 C234.9753,1247.4654 239.7405,1252.2438 244.9903,1256.3782 " fill="none" id="Status-SensorStatus" style="stroke: #A80036; stroke-width: 1.0;"/><polygon fill="#A80036" points="249.0884,1259.415,244.2388,1250.8429,245.0711,1256.4382,239.4759,1257.2705,249.0884,1259.415" style="stroke: #A80036; stroke-width: 1.0;"/><!--link Status to MotorStatus--><path d="M140.0244,778.714 C149.03,784.1733 157.9031,791.2272 163.8527,800 C257.6754,938.3447 136.9962,1032.0187 231.3527,1170 C235.0539,1175.4125 239.864,1180.1607 245.1357,1184.2803 " fill="none" id="Status-MotorStatus" style="stroke: #A80036; stroke-width: 1.0;"/><polygon fill="#A80036" points="249.2463,1187.3087,244.3729,1178.7501,245.2208,1184.343,239.6278,1185.1909,249.2463,1187.3087" style="stroke: #A80036; stroke-width: 1.0;"/><!--link Status to MotorGraph--><path d="M140.1579,758.3775 C188.9735,751.9328 280.7522,746.1998 348.3527,780 C398.8301,805.2387 436.5805,862.4911 454.7739,894.7607 " fill="none" id="Status-MotorGraph" style="stroke: #A80036; stroke-width: 1.0;"/><polygon fill="#A80036" points="457.3155,899.3338,456.4397,889.524,454.8865,894.9634,449.4471,893.4103,457.3155,899.3338" style="stroke: #A80036; stroke-width: 1.0;"/><!--link Status to SensorGraph--><path d="M140.202,770.2767 C190.7274,781.1453 286.5315,807.7175 348.3527,862 C383.6464,892.9899 366.839,921.0932 400.3527,954 C406.0156,959.5604 412.7124,964.5023 419.6388,968.8075 " fill="none" id="Status-SensorGraph" style="stroke: #A80036; stroke-width: 1.0;"/><polygon fill="#A80036" points="423.9741,971.4058,418.3108,963.3481,419.6854,968.8354,414.1981,970.21,423.9741,971.4058" style="stroke: #A80036; stroke-width: 1.0;"/><!--link Status to FileUpload--><path d="M72.4169,773.4147 C50.8764,781.3557 24.7169,795.1029 11.8527,817.5 C3.8837,831.3743 4.38,839.3522 11.8527,853.5 C21.6878,872.1206 39.5836,886.3804 57.1772,896.6978 " fill="none" id="Status-FileUpload" style="stroke: #A80036; stroke-width: 1.0;"/><polygon fill="#A80036" points="61.6385,899.2361,55.7942,891.3087,57.2927,896.7634,51.8379,898.2619,61.6385,899.2361" style="stroke: #A80036; stroke-width: 1.0;"/><!--link Utils to MotorGraph--><path d="M139.8537,1355.3517 C140.4047,1355.4338 140.9611,1355.5156 141.5228,1355.5973 C142.6462,1355.7605 143.7906,1355.9227 144.9552,1356.0833 C147.2845,1356.4046 149.6946,1356.7195 152.1785,1357.0237 C157.1462,1357.6319 162.4091,1358.1971 167.9108,1358.6834 C178.9142,1359.6561 190.873,1360.3136 203.3371,1360.3709 C253.1935,1360.5999 311.1345,1351.225 348.3527,1314 C462.6536,1199.6785 307.8706,1086.5941 400.3527,954 C405.2344,947.0009 411.9243,941.2352 419.1894,936.5277 " fill="none" id="Utils-MotorGraph" style="stroke: #A80036; stroke-width: 1.0;"/><polygon fill="#A80036" points="139.8537,1355.3517,148.1663,1360.6338,144.7991,1356.0882,149.3447,1352.7211,139.8537,1355.3517" style="stroke: #A80036; stroke-width: 1.0;"/><!--link Utils to SensorGraph--><path d="M139.9895,1358.2482 C141.1846,1358.5589 142.4043,1358.8742 143.6473,1359.1936 C163.5354,1364.3044 189.3968,1370.4717 216.2105,1375.5579 C269.8379,1385.7304 327.2744,1391.5783 348.3527,1376 C410.2242,1330.2728 453.1136,1079.1841 464.0861,1008.5142 " fill="none" id="Utils-SensorGraph" style="stroke: #A80036; stroke-width: 1.0;"/><polygon fill="#A80036" points="139.9895,1358.2482,147.6937,1364.3837,144.8287,1359.5061,149.7063,1356.641,139.9895,1358.2482" style="stroke: #A80036; stroke-width: 1.0;"/><!--link Utils to SensorStatus--><path d="M139.569,1336.1479 C139.7487,1336.0784 139.9289,1336.0086 140.1096,1335.9387 C140.4711,1335.7989 140.8345,1335.6582 141.2,1335.5168 C141.9309,1335.234 142.6698,1334.9481 143.4163,1334.6593 C144.9092,1334.0816 146.4326,1333.4922 147.9835,1332.8921 C151.0854,1331.6919 154.2976,1330.4491 157.5972,1329.1724 C183.994,1318.959 215.9874,1306.5801 241.8948,1296.5559 " fill="none" id="Utils-SensorStatus" style="stroke: #A80036; stroke-width: 1.0;"/><polygon fill="#A80036" points="139.569,1336.1479,149.406,1336.6307,144.2321,1334.3436,146.5192,1329.1697,139.569,1336.1479" style="stroke: #A80036; stroke-width: 1.0;"/><!--link Utils to MotorStatus--><path d="M139.4178,1330.2778 C140.1691,1329.8046 140.9235,1329.3253 141.68,1328.8406 C143.1928,1327.871 144.7139,1326.8792 146.234,1325.8681 C152.3144,1321.8238 158.3802,1317.471 163.8527,1313 C197.5704,1285.4525 197.5287,1269.417 231.3527,1242 C239.0418,1235.7673 247.8944,1229.7919 256.3478,1224.5621 " fill="none" id="Utils-MotorStatus" style="stroke: #A80036; stroke-width: 1.0;"/><polygon fill="#A80036" points="139.4178,1330.2778,149.1648,1328.8649,143.6483,1327.6127,144.9005,1322.0961,139.4178,1330.2778" style="stroke: #A80036; stroke-width: 1.0;"/><!--link MotorStatus to MotorGraph--><path d="M329.859,1187.3031 C336.8549,1182.5097 343.4502,1176.7565 348.3527,1170 C406.3422,1090.0792 340.1689,1032.2818 400.3527,954 C404.5611,948.5261 409.8471,943.7819 415.5903,939.6986 " fill="none" id="MotorStatus-MotorGraph" style="stroke: #A80036; stroke-width: 1.0;"/><polygon fill="#A80036" points="420.061,936.7037,410.3575,938.3896,415.907,939.4866,414.8101,945.036,420.061,936.7037" style="stroke: #A80036; stroke-width: 1.0;"/><!--link SensorStatus to SensorGraph--><path d="M327.2932,1259.4601 C334.9036,1254.5198 342.3925,1248.6687 348.3527,1242 C411.4536,1171.3972 447.3643,1061.3178 460.7537,1013.4965 " fill="none" id="SensorStatus-SensorGraph" style="stroke: #A80036; stroke-width: 1.0;"/><polygon fill="#A80036" points="462.1278,1008.5219,455.8759,1016.132,460.7965,1013.3414,463.5871,1018.262,462.1278,1008.5219" style="stroke: #A80036; stroke-width: 1.0;"/><!--link Keyboard to NXTPacket--><path d="M329.859,1115.3031 C336.8549,1110.5097 343.4502,1104.7565 348.3527,1098 C406.3422,1018.0792 365.5995,974.4248 400.3527,882 C447.1618,757.513 493.1995,741.7317 539.3527,617 C591.0978,477.1555 619.9102,299.1217 629.09,235.7248 " fill="none" id="Keyboard-NXTPacket" style="stroke: #A80036; stroke-width: 1.0;"/><polygon fill="#A80036" points="629.8177,230.6533,624.5798,238.9938,629.1074,235.6026,632.4986,240.1303,629.8177,230.6533" style="stroke: #A80036; stroke-width: 1.0;"/><!--link MotorGraph to NXTPacket--><path d="M481.7157,894.5248 C498.3569,867.1414 524.883,819.996 539.3527,776 C605.8126,573.9243 626.1789,314.8263 631.0464,235.8768 " fill="none" id="MotorGraph-NXTPacket" style="stroke: #A80036; stroke-width: 1.0;"/><polygon fill="#A80036" points="631.3705,230.507,626.8352,239.2495,631.0691,235.4979,634.8207,239.7318,631.3705,230.507" style="stroke: #A80036; stroke-width: 1.0;"/><polygon fill="#A80036" points="478.931,899.0744,487.0411,893.4863,481.5412,894.8098,480.2177,889.31,478.931,899.0744" style="stroke: #A80036; stroke-width: 1.0;"/><!--link SensorGraph to NXTPacket--><path d="M524.7183,968.3685 C530.3321,964.3234 535.3986,959.5704 539.3527,954 C582.0227,893.8878 622.1816,356.3912 630.6985,235.8983 " fill="none" id="SensorGraph-NXTPacket" style="stroke: #A80036; stroke-width: 1.0;"/><polygon fill="#A80036" points="631.0572,230.8039,626.4345,239.5005,630.7058,235.7915,634.4147,240.0628,631.0572,230.8039" style="stroke: #A80036; stroke-width: 1.0;"/><polygon fill="#A80036" points="520.3281,971.3256,530.0273,969.6153,524.4751,968.5323,525.5581,962.9801,520.3281,971.3256" style="stroke: #A80036; stroke-width: 1.0;"/><!--link Bluetooth to NXTPacket--><path d="M515.9905,89.039 C524.1352,93.4548 532.2357,98.4721 539.3527,104 C570.9946,128.577 599.8151,165.2708 616.7245,188.9211 " fill="none" id="Bluetooth-NXTPacket" style="stroke: #A80036; stroke-width: 1.0;"/><polygon fill="#A80036" points="619.7412,193.1795,617.8025,183.5233,616.8509,189.0996,611.2746,188.1479,619.7412,193.1795" style="stroke: #A80036; stroke-width: 1.0;"/><polygon fill="#A80036" points="511.467,86.6483,517.5548,94.3903,515.8875,88.9847,521.2931,87.3174,511.467,86.6483" style="stroke: #A80036; stroke-width: 1.0;"/><!--link Motor to NXTPacket--><path d="M502.2594,155.4035 C526.3336,165.8769 558.4641,179.8551 584.7696,191.2992 " fill="none" id="Motor-NXTPacket" style="stroke: #A80036; stroke-width: 1.0;"/><polygon fill="#A80036" points="589.6104,193.4052,582.9532,186.147,585.0255,191.4106,579.7618,193.4829,589.6104,193.4052" style="stroke: #A80036; stroke-width: 1.0;"/><polygon fill="#A80036" points="497.5941,153.3739,504.2511,160.6323,502.179,155.3686,507.4427,153.2965,497.5941,153.3739" style="stroke: #A80036; stroke-width: 1.0;"/><!--link Sensor to NXTPacket--><path d="M507.1721,212 C529.0262,212 556.2932,212 579.7948,212 " fill="none" id="Sensor-NXTPacket" style="stroke: #A80036; stroke-width: 1.0;"/><polygon fill="#A80036" points="585.0585,212,576.0585,208,580.0585,212,576.0585,216,585.0585,212" style="stroke: #A80036; stroke-width: 1.0;"/><polygon fill="#A80036" points="501.9509,212,510.9509,216,506.9509,212,510.9509,208,501.9509,212" style="stroke: #A80036; stroke-width: 1.0;"/><!--link FileUpload to NXTPacket--><path d="M141.6588,896.1668 C150.2425,889.1754 158.4858,880.6936 163.8527,871 C279.7238,661.7131 157.042,564.3874 231.3527,337 C279.493,189.6925 266.8287,110.6661 400.3527,32 C453.5797,0.6411 486.5874,-0.1298 539.3527,32 C595.9944,66.4903 619.6482,147.8074 628.1816,188.2718 " fill="none" id="FileUpload-NXTPacket" style="stroke: #A80036; stroke-width: 1.0;"/><polygon fill="#A80036" points="629.2412,193.4671,631.3618,183.8492,628.2419,188.568,623.5232,185.4481,629.2412,193.4671" style="stroke: #A80036; stroke-width: 1.0;"/><polygon fill="#A80036" points="137.4287,899.4779,146.9812,897.0802,141.3659,896.396,142.0501,890.7806,137.4287,899.4779" style="stroke: #A80036; stroke-width: 1.0;"/><!--link FileUpload to Bluetooth--><path d="M140.8842,896.0759 C149.556,889.0422 158.0377,880.5615 163.8527,871 C239.6057,746.4397 190.4009,689.9169 231.3527,550 C290.897,346.5591 260.8325,263.5865 400.3527,104 C406.4013,97.0814 414.1142,91.2548 422.1289,86.4402 " fill="none" id="FileUpload-Bluetooth" style="stroke: #A80036; stroke-width: 1.0;"/><polygon fill="#A80036" points="136.6228,899.411,146.1756,897.0143,140.5603,896.3295,141.2451,890.7142,136.6228,899.411" style="stroke: #A80036; stroke-width: 1.0;"/><!--link Status to Bluetooth--><path d="M144.2433,746.9541 C151.8288,741.8863 158.9593,735.6048 163.8527,728 C287.0973,536.4632 112.172,414.0917 231.3527,220 C275.2768,148.4673 366.9337,104.3214 422.0526,83.1333 " fill="none" id="Status-Bluetooth" style="stroke: #A80036; stroke-width: 1.0;"/><polygon fill="#A80036" points="139.9936,749.6454,149.7372,748.2096,144.2178,746.9703,145.4571,741.4509,139.9936,749.6454" style="stroke: #A80036; stroke-width: 1.0;"/><!--link Joystick to Main--><path d="M145.7006,713.4608 C152.123,717.8318 158.4375,722.7248 163.8527,728 C218.8547,781.5801 262.8535,863.066 280.9393,899.393 " fill="none" id="Joystick-Main" style="stroke: #A80036; stroke-width: 1.0;"/><polygon fill="#A80036" points="141.2468,710.52,146.5531,718.8172,145.4192,713.2751,150.9613,712.1413,141.2468,710.52" style="stroke: #A80036; stroke-width: 1.0;"/><!--link Sensor to I2CRegister--><path d="M426.4912,219.8051 C406.5969,226.0275 384.6973,237.0677 374.3527,256.5 C362.6572,278.4698 362.6572,290.5302 374.3527,312.5 C383.0702,328.8758 399.0915,340.6215 415.3804,348.8556 " fill="none" id="Sensor-I2CRegister" style="stroke: #A80036; stroke-width: 1.0;"/><polygon fill="#A80036" points="431.4977,218.3248,421.7329,217.0411,426.7029,219.7426,424.0014,224.7127,431.4977,218.3248" style="stroke: #A80036; stroke-width: 1.0;"/><!--link NXTFile to FileUpload--><path d="M426.4232,310.3704 C416.9967,315.5903 407.6063,322.1094 400.3527,330 C222.7575,523.1886 322.4184,661.9096 163.8527,871 C155.6724,881.7868 144.5293,891.6318 134.2301,899.4929 " fill="none" id="NXTFile-FileUpload" style="stroke: #A80036; stroke-width: 1.0;"/><polygon fill="#A80036" points="431.0445,307.9119,421.2202,308.6074,426.6302,310.2602,424.9775,315.6702,431.0445,307.9119" style="stroke: #A80036; stroke-width: 1.0;"/><!--link Command to NXTPacket--><path d="M517.2807,491.3718 C525.4431,486.6606 533.216,480.9196 539.3527,474 C604.8446,400.1518 625.0487,277.0985 630.5272,230.5775 " fill="none" id="Command-NXTPacket" style="stroke: #A80036; stroke-width: 1.0;"/><polygon fill="#A80036" points="512.7139,493.8841,522.5274,493.0508,517.0948,491.4741,518.6714,486.0414,512.7139,493.8841" style="stroke: #A80036; stroke-width: 1.0;"/><!--link Packet to NXTPacket--><path d="M504.2574,570.5086 C516.9784,564.9345 530.2622,556.9977 539.3527,546 C580.6734,496.0099 618.3286,293.5031 629.2088,230.6798 " fill="none" id="Packet-NXTPacket" style="stroke: #A80036; stroke-width: 1.0;"/><polygon fill="#A80036" points="499.605,572.4565,509.4515,572.67,504.217,570.5254,506.3617,565.2908,499.605,572.4565" style="stroke: #A80036; stroke-width: 1.0;"/><!--link PacketFactory to NXTPacket--><path d="M519.8797,416.8879 C526.9444,412.6401 533.6907,407.6942 539.3527,402 C587.678,353.3987 614.9686,274.6863 626.2113,235.5921 " fill="none" id="PacketFactory-NXTPacket" style="stroke: #A80036; stroke-width: 1.0;"/><polygon fill="#A80036" points="627.629,230.5722,621.3334,238.1462,626.27,235.384,629.0322,240.3206,627.629,230.5722" style="stroke: #A80036; stroke-width: 1.0;"/><polygon fill="#A80036" points="515.4467,419.443,525.2417,418.4141,519.7786,416.9461,521.2466,411.4831,515.4467,419.443" style="stroke: #A80036; stroke-width: 1.0;"/><!--link Chart to MotorStatus--><path d="M140.8944,846.0946 C149.4885,850.1038 157.9282,855.5848 163.8527,863 C251.0558,972.1453 150.4322,1056.1187 231.3527,1170 C236.1879,1176.8047 242.7528,1182.5798 249.7399,1187.3795 " fill="none" id="Chart-MotorStatus" style="stroke: #A80036; stroke-width: 1.0;"/><polygon fill="#A80036" points="136.119,844.0157,142.7744,851.2755,140.7034,846.0114,145.9676,843.9404,136.119,844.0157" style="stroke: #A80036; stroke-width: 1.0;"/><!--link Chart to SensorStatus--><path d="M140.8401,845.8218 C149.5231,849.8398 158.0217,855.3934 163.8527,863 C267.944,998.7885 135.0706,1100.567 231.3527,1242 C235.9831,1248.8019 242.3673,1254.5524 249.2235,1259.3242 " fill="none" id="Chart-SensorStatus" style="stroke: #A80036; stroke-width: 1.0;"/><polygon fill="#A80036" points="136.013,843.7443,142.6985,850.9765,140.6057,845.721,145.8612,843.6282,136.013,843.7443" style="stroke: #A80036; stroke-width: 1.0;"/><!--link Chart to MotorGraph--><path d="M141.1711,834.0885 C188.928,832.4707 276.9601,833.1054 348.3527,854 C382.0131,863.8515 416.9115,884.1309 440.0407,899.2358 " fill="none" id="Chart-MotorGraph" style="stroke: #A80036; stroke-width: 1.0;"/><polygon fill="#A80036" points="136.1138,834.2734,145.2541,837.9416,141.1105,834.0905,144.9615,829.9469,136.1138,834.2734" style="stroke: #A80036; stroke-width: 1.0;"/><!--link Chart to SensorGraph--><path d="M140.8485,842.2177 C206.6446,854.123 343.9677,879.2105 348.3527,882 C381.6578,903.187 370.696,927.9499 400.3527,954 C407.8489,960.5846 416.7552,966.4325 425.5737,971.4007 " fill="none" id="Chart-SensorGraph" style="stroke: #A80036; stroke-width: 1.0;"/><polygon fill="#A80036" points="135.8554,841.3147,143.9998,846.8526,140.7756,842.2046,145.4236,838.9803,135.8554,841.3147" style="stroke: #A80036; stroke-width: 1.0;"/><!--
@startuml architecture
left to right direction

package "Presentation" {
    package "Pages" {
        [Main]
        [Tab]
        [About]
        [FileUpload]
        [Keyboard]
        [MotorStatus]
        [SensorStatus]
        [MotorGraph]
        [SensorGraph]
        [Settings]
    }
    package "Components" {
        [Status]
        [Chart]
        [Joystick]
    }
}

package "Business" {
    [Bluetooth]
    [NXTPacket]
    [Motor]
    [Sensor]
}


package "Utils" {
    component util as "Utils"
}
package "Data" {
    [I2CRegister]
    [NXTFile]
    [Command]
    [Packet]
    [PacketFactory]
}

Tab - -> Main
Tab - -> About
Tab - -> Keyboard
Tab - -> Settings
Tab - -> SensorStatus
Tab - -> MotorStatus
Status - -> Main
Status - -> About
Status - -> Keyboard
Status - -> Settings
Status - -> SensorStatus
Status - -> MotorStatus
Status - -> MotorGraph
Status - -> SensorGraph
Status - -> FileUpload
Utils <- - MotorGraph
Utils <- - SensorGraph
Utils <- - SensorStatus
Utils <- - MotorStatus
MotorStatus - -> MotorGraph
SensorStatus - -> SensorGraph
Keyboard - -> NXTPacket
MotorGraph <- -> NXTPacket
SensorGraph <- -> NXTPacket
Bluetooth <- -> NXTPacket
Motor <- -> NXTPacket
Sensor <- -> NXTPacket
FileUpload <- -> NXTPacket
FileUpload <- Bluetooth
Status <- - Bluetooth
Joystick <- - Main
Sensor <- - I2CRegister
NXTFile <- - FileUpload
Command <- - NXTPacket
Packet <- - NXTPacket
PacketFactory <- -> NXTPacket
Chart <- - MotorStatus
Chart <- - SensorStatus
Chart <- - MotorGraph
Chart <- - SensorGraph

@enduml

PlantUML version 1.2018.03(Fri Apr 06 04:59:15 NZST 2018)
(GPL source distribution)
Java Runtime: Java(TM) SE Runtime Environment
JVM: Java HotSpot(TM) 64-Bit Server VM
Java Version: 10.0.2+13
Operating System: Linux
OS Version: 4.18.4-arch1-1-ARCH
Default Encoding: UTF-8
Language: en
Country: NZ
--></g></svg>